# AST/ASF file generated using VICON BodyLanguage
# -----------------------------------------------
:version 1.10
:name VICON
:units
  mass 1.0
  length 0.45
  angle deg
:documentation
   .ast/.asf automatically generated from VICON data using
   VICON BodyBuilder and BodyLanguage model FoxedUp or BRILLIANT.MOD
:root
   order TX TY TZ RX RY RZ
   axis XYZ
   position 0 0 0  
   orientation 0 0 0 
:bonedata
  begin
     id 1 
     name lhipjoint
     direction 0.635376 -0.686425 0.353719 
     length 2.47244 
     axis 0 0 0  XYZ
  end
  begin
     id 2 
     name lfemur
     direction 0.34202 -0.939693 0  
     length 7.25268  
     axis 0 0 20  XYZ
    dof rx ry rz
    limits (-160.0 20.0)
           (-70.0 70.0)
           (-60.0 70.0)
  end
  begin
     id 3 
     name ltibia
     direction 0.34202 -0.939693 0   
     length 7.6767   
     axis 0 0 20   XYZ
    dof rx
    limits (-10.0 170.0)
  end
  begin
     id 4 
     name lfoot
     direction 0.0803374 -0.220725 0.972022   
     length 2.22945   
     axis -90 7.62852e-016 20   XYZ
    dof rx rz
    limits (-45.0 90.0)
           (-70.0 20.0)
  end
  begin
     id 5 
     name ltoes
     direction 1.53579e-011 -4.21994e-011 1   
     length 1.11848   
     axis -90 7.62852e-016 20   XYZ
    dof rx
    limits (-90.0 20.0)
  end
  begin
     id 6 
     name rhipjoint
     direction -0.664428 -0.664335 0.342336   
     length 2.55466  
     axis 0 0 0  XYZ 
  end
  begin
     id 7 
     name rfemur
     direction -0.34202 -0.939693 0   
     length 6.83172   
     axis 0 0 -20   XYZ
    dof rx ry rz
    limits (-160.0 20.0)
           (-70.0 70.0)
           (-70.0 60.0)
  end
  begin
     id 8 
     name rtibia
     direction -0.34202 -0.939693 0   
     length 7.62692   
     axis 0 0 -20   XYZ
    dof rx
    limits (-10.0 170.0)
 end
 begin
     id 9 
     name rfoot
     direction -0.0949276 -0.260811 0.960711   
     length 2.19684  
     axis -90 -7.62852e-016 -20   XYZ
    dof rx rz
    limits (-45.0 90.0)
           (-20.0 70.0)
  end
  begin
     id 10 
     name rtoes
     direction -1.53543e-011 -4.2183e-011 1   
     length 1.09848   
     axis -90 -7.62852e-016 -20   XYZ
    dof rx
    limits (-90.0 20.0)
  end
  begin
     id 11 
     name lowerback
     direction 0.0118782 0.999815 -0.0151555   
     length 2.15772   
     axis 0 0 0   XYZ
    dof rx ry rz
    limits (-20.0 45.0)
           (-30.0 30.0)
           (-30.0 30.0)
  end
  begin
     id 12 
     name upperback
     direction 0.00130825 0.999065 0.0432113   
     length 2.14863   
     axis 0 0 0   XYZ
    dof rx ry rz
    limits (-20.0 45.0)
           (-30.0 30.0)
           (-30.0 30.0)
  end
  begin
     id 13 
     name thorax
     direction -0.00347005 0.998773 0.0494011   
     length 2.14936   
     axis 0 0 0   XYZ
    dof rx ry rz
    limits (-20.0 45.0)
           (-30.0 30.0)
           (-30.0 30.0)
  end
  begin
     id 14 
     name lowerneck
     direction -0.0262159 0.99424 0.103921   
     length 1.69373   
     axis 0 0 0   XYZ
    dof rx ry rz
    limits (-20.0 45.0)
           (-30.0 30.0)
           (-30.0 30.0)
  end
  begin
     id 15 
     name upperneck
     direction 0.0353511 0.977394 -0.20845   
     length 1.70857   
     axis 0 0 0   XYZ
    dof rx ry rz
    limits (-20.0 45.0)
           (-30.0 30.0)
           (-30.0 30.0)
  end
  begin
     id 16
     name head
     direction 0.0139214 0.996594 -0.0812836  
     length 1.72777  
     axis 0 0 0   XYZ
    dof rx ry rz
    limits (-20.0 45.0)
           (-30.0 30.0)
           (-30.0 30.0)
  end
  begin
     id 17 
     name lclavicle
     direction 0.841247 0.537205 -0.0609508  
     length 3.55371  
     axis 0 0 0   XYZ
    dof ry rz
    limits (-20.0 10.0)
           (0.0 20.0)
  end
  begin
     id 18 
     name lhumerus
     direction 1 -4.48964e-011 1.60116e-018   
     length 4.91377   
     axis -180 -30 -90   XYZ
    dof rx ry rz
    limits (-60.0 90.0)
           (-90.0 90.0)
           (-90.0 90.0)
  end
  begin
     id 19
     name lradius
     direction 1 -4.48989e-011 -8.93847e-027   
     length 3.00291   
     axis -180 -30 -90   XYZ
    dof rx
    limits (-10.0 170.0)
  end
  begin
     id 20
     name lwrist
     direction 1 -4.48932e-011 -7.31504e-027   
     length 1.50145   
     axis 5.74121e-015 90 90   XYZ
    dof ry
    limits (-180.0 0.0)
 end
  begin
     id 21 
     name lhand
     direction 1 -4.48971e-011 -1.46301e-026   
     length 0.450922   
     axis 9.33524e-015 90 90   XYZ
    dof rx rz
    limits (-90.0 90.0)
           (-45.0 45.0)
  end
  begin
     id 22 
     name lfingers
     direction 1 -4.49039e-011 -2.92602e-026   
     length 0.363545   
     axis 1.86705e-014 90 90   XYZ
    dof rx
    limits (0.0 90.0)
  end
  begin
     id 23
     name lthumb
     direction 0.707107 -6.34941e-011 0.707107   
     length 0.52198   
     axis -90 45 2.85299e-015   XYZ
    dof rx rz
    limits (-45.0 45.0)
           (-45.0 45.0)
  end
  begin
     id 24 
     name rclavicle
     direction -0.825079 0.56158 -0.0622297   
     length 3.39909  
     axis 0 0 0   XYZ 
    dof ry rz
    limits (-10.0 20.0)
           (-20.0 0.0)
  end
  begin
     id 25 
     name rhumerus
     direction -1 -4.48965e-011 1.61691e-027  
     length 4.86725   
     axis -180 30 90   XYZ
    dof rx ry rz
    limits (-90.0 60.0)
           (-90.0 90.0)
           (-90.0 90.0)
  end
  begin
     id 26 
     name rradius
     direction -1 -4.48964e-011 -2.25776e-027   
     length 3.17144   
     axis -180 30 90   XYZ
    dof rx
    limits (-10.0 170.0)
  end
  begin
     id 27 
     name rwrist
     direction -1 -4.48961e-011 -7.31504e-027   
     length 1.58572   
     axis 5.74121e-015 -90 -90   XYZ
    dof ry
    limits (-180.0 0.0)
  end
  begin
     id 28
     name rhand
     direction -1 -4.49013e-011 -1.46301e-026   
     length 0.419368   
     axis 9.33524e-015 -90 -90   XYZ
    dof rx rz
    limits (-90.0 90.0)
           (-45.0 45.0)
  end
  begin
     id 29
     name rfingers
     direction -1 -4.489e-011 -2.92602e-026   
     length 0.338105   
     axis 1.86705e-014 -90 -90   XYZ
    dof rx
    limits (0.0 90.0)
  end
  begin
     id 30
     name rthumb
     direction -0.707107 -6.35022e-011 0.707107   
     length 0.485453   
     axis -90 -45 -2.85299e-015   XYZ
    dof rx rz
    limits (-45.0 45.0)
           (-45.0 45.0)
  end
:hierarchy
  begin
    root lhipjoint rhipjoint lowerback
    lhipjoint lfemur
    lfemur ltibia
    ltibia lfoot
    lfoot ltoes
    rhipjoint rfemur
    rfemur rtibia
    rtibia rfoot
    rfoot rtoes
    lowerback upperback
    upperback thorax
    thorax lowerneck lclavicle rclavicle
    lowerneck upperneck
    upperneck head
    lclavicle lhumerus
    lhumerus lradius
    lradius lwrist
    lwrist lhand lthumb
    lhand lfingers
    rclavicle rhumerus
    rhumerus rradius
    rradius rwrist
    rwrist rhand rthumb
    rhand rfingers
  end

#!OML:ASF H:\Swim 2\Project 1\Capture day 1\Session 1\male.ASF
:FULLY-SPECIFIED
:DEGREES
1009
root 7.6334 10.0983 12.7336 100.946 -3.55533 5.17353
lowerback -8.22142 1.10083 7.09579
upperback -5.69296 1.02278 -6.47764
thorax -1.14825 0.223429 -10.8978
lowerneck -4.37035 -1.39247 -2.36888
upperneck 42.8427 -3.35869 5.75108
head 16.236 -1.00028 2.53543
rclavicle 7.95139e-016 -8.05078e-015
rhumerus 84.771 -16.8285 -26.0437
rradius 31.4155
rwrist -11.4679
rhand -22.9615 -6.21535
rfingers 7.12502
rthumb 3.48025 -36.1667
lclavicle 7.95139e-016 -8.05078e-015
lhumerus 93.0624 11.3331 26.3843
lradius 25.9255
lwrist 5.51075
lhand -40.1249 -9.52312
lfingers 7.12502
lthumb -13.0882 20.0462
rfemur -34.115 -6.16578 18.2572
rtibia 103.377
rfoot 30.3131 2.98235
rtoes 23.4115
lfemur -31.8506 0.326692 -20.459
ltibia 105.194
lfoot 26.5783 -5.16849
ltoes 37.3517
1010
root 7.63017 10.0941 12.7675 101.188 -3.55848 5.16853
lowerback -8.39287 1.13547 7.14823
upperback -5.75008 1.05773 -6.51974
thorax -1.10571 0.239209 -10.9739
lowerneck -4.50462 -1.39038 -2.36381
upperneck 42.7111 -3.3626 5.77746
head 16.1961 -0.996458 2.54026
rclavicle -7.95139e-016 1.89839e-014
rhumerus 84.6682 -16.8166 -25.9809
rradius 31.4343
rwrist -11.338
rhand -22.7751 -6.09783
rfingers 7.12502
rthumb 3.66031 -36.0461
lclavicle -7.95139e-016 1.89839e-014
lhumerus 92.8924 11.3384 26.285
lradius 25.9987
lwrist 5.48568
lhand -40.2418 -9.86389
lfingers 7.12502
lthumb -13.2009 19.6982
rfemur -34.3707 -5.91603 18.2281
rtibia 102.775
rfoot 30.198 2.69634
rtoes 23.5454
lfemur -32.2409 -0.144212 -20.3432
ltibia 104.928
lfoot 26.5928 -5.14839
ltoes 37.4823
1011
root 7.6276 10.0905 12.8013 101.45 -3.5678 5.14781
lowerback -8.57604 1.17551 7.19692
upperback -5.81331 1.09957 -6.56078
thorax -1.06153 0.25853 -11.0458
lowerneck -4.64344 -1.39543 -2.35724
upperneck 42.5773 -3.36973 5.78471
head 16.1559 -0.995624 2.53583
rclavicle 1.59028e-015 2.59414e-014
rhumerus 84.5407 -16.8004 -25.8986
rradius 31.4654
rwrist -11.0925
rhand -22.6937 -5.94598
rfingers 7.12502
rthumb 3.73887 -35.8929
lclavicle 1.59028e-015 2.59414e-014
lhumerus 92.6917 11.3517 26.1421
lradius 26.1263
lwrist 5.63629
lhand -40.3679 -10.395
lfingers 7.12502
lthumb -13.3224 19.1591
rfemur -34.6169 -5.65077 18.1874
rtibia 102.056
rfoot 30.0102 2.43498
rtoes 23.6454
lfemur -32.6358 -0.601143 -20.2503
ltibia 104.537
lfoot 26.5916 -5.10186
ltoes 37.6502
1012
root 7.62619 10.0877 12.8344 101.739 -3.57705 5.11441
lowerback -8.77714 1.22278 7.2527
upperback -5.88549 1.14969 -6.60032
thorax -1.01499 0.281723 -11.1195
lowerneck -4.78485 -1.40697 -2.35292
upperneck 42.4435 -3.38086 5.77946
head 16.1166 -0.997961 2.52579
rclavicle -7.95139e-016 -3.08116e-015
rhumerus 84.3793 -16.7821 -25.7881
rradius 31.5099
rwrist -10.674
rhand -22.7465 -5.75002
rfingers 7.12502
rthumb 3.68793 -35.6979
lclavicle -7.95139e-016 -3.08116e-015
lhumerus 92.4676 11.371 25.9564
lradius 26.2866
lwrist 5.89279
lhand -40.5098 -11.0968
lfingers 7.12502
lthumb -13.4592 18.4483
rfemur -34.8648 -5.37346 18.1404
rtibia 101.222
rfoot 29.76 2.21347
rtoes 23.7026
lfemur -33.0454 -1.04061 -20.1733
ltibia 104.03
lfoot 26.577 -5.02212
ltoes 37.8721
1013
root 7.62631 10.0859 12.8664 102.057 -3.58718 5.07138
lowerback -8.99934 1.27787 7.3214
upperback -5.96809 1.20826 -6.64208
thorax -0.965862 0.308591 -11.2027
lowerneck -4.92701 -1.41954 -2.36073
upperneck 42.304 -3.39439 5.78398
head 16.0753 -1.00202 2.52181
rclavicle -1.27222e-014 3.35946e-014
rhumerus 84.17 -16.7664 -25.6312
rradius 31.5708
rwrist -10.0432
rhand -22.9415 -5.52253
rfingers 7.12502
rthumb 3.49961 -35.4735
lclavicle -1.27222e-014 3.35946e-014
lhumerus 92.2379 11.387 25.7567
lradius 26.448
lwrist 6.14697
lhand -40.6516 -11.8874
lfingers 7.12502
lthumb -13.5958 17.6486
rfemur -35.1223 -5.09123 18.0818
rtibia 100.272
rfoot 29.4869 1.99719
rtoes 23.7721
lfemur -33.474 -1.45977 -20.1134
ltibia 103.411
lfoot 26.5529 -4.90867
ltoes 38.1396
1014
root 7.62784 10.085 12.897 102.388 -3.59472 5.02268
lowerback -9.22845 1.34058 7.39701
upperback -6.05649 1.27617 -6.68283
thorax -0.91679 0.339912 -11.2878
lowerneck -5.06583 -1.43571 -2.38233
upperneck 42.1594 -3.41634 5.80597
head 16.032 -1.0096 2.5268
rclavicle -7.95139e-015 2.18663e-014
rhumerus 83.91 -16.7595 -25.4318
rradius 31.6408
rwrist -9.14575
rhand -23.225 -5.27188
rfingers 7.12502
rthumb 3.22581 -35.2272
lclavicle -7.95139e-015 2.18663e-014
lhumerus 92.0083 11.3988 25.5351
lradius 26.5858
lwrist 6.30171
lhand -40.793 -12.6636
lfingers 7.12502
lthumb -13.7321 16.8633
rfemur -35.3617 -4.80421 18.0189
rtibia 99.2004
rfoot 29.2214 1.77892
rtoes 23.8251
lfemur -33.8967 -1.85944 -20.0633
ltibia 102.681
lfoot 26.5239 -4.75783
ltoes 38.4681
1015
root 7.63027 10.0847 12.9263 102.731 -3.59573 4.9721
lowerback -9.46599 1.40811 7.47823
upperback -6.14961 1.34952 -6.72155
thorax -0.866757 0.373802 -11.3734
lowerneck -5.20182 -1.45242 -2.42191
upperneck 42.0053 -3.44565 5.85677
head 15.9848 -1.01976 2.5464
rclavicle -3.97569e-015 2.88238e-015
rhumerus 83.6053 -16.7626 -25.1981
rradius 31.7053
rwrist -7.99928
rhand -23.5853 -4.97891
rfingers 7.12502
rthumb 2.87785 -34.9392
lclavicle -3.97569e-015 2.88238e-015
lhumerus 91.7854 11.4044 25.3078
lradius 26.6797
lwrist 6.28276
lhand -40.9112 -13.3704
lfingers 7.12502
lthumb -13.846 16.1488
rfemur -35.5769 -4.51375 17.9591
rtibia 97.9974
rfoot 28.9836 1.5417
rtoes 23.8957
lfemur -34.3076 -2.23928 -20.0111
ltibia 101.84
lfoot 26.4818 -4.57292
ltoes 38.8657
1016
root 7.6328 10.085 12.9542 103.08 -3.58751 4.92259
lowerback -9.70676 1.47726 7.55659
upperback -6.24721 1.42481 -6.75556
thorax -0.819303 0.408545 -11.4514
lowerneck -5.3365 -1.47081 -2.4769
upperneck 41.8426 -3.48336 5.93349
head 15.9347 -1.03284 2.57868
rclavicle -4.77083e-015 -1.5704e-014
rhumerus 83.2653 -16.7765 -24.9374
rradius 31.7453
rwrist -6.67496
rhand -23.9665 -4.62208
rfingers 7.12502
rthumb 2.50974 -34.5871
lclavicle -4.77083e-015 -1.5704e-014
lhumerus 91.5606 11.4061 25.0615
lradius 26.7243
lwrist 6.06518
lhand -41.0071 -13.9648
lfingers 7.12502
lthumb -13.9385 15.548
rfemur -35.7582 -4.21624 17.9137
rtibia 96.6583
rfoot 28.7879 1.2736
rtoes 23.9749
lfemur -34.6979 -2.60012 -19.9457
ltibia 100.886
lfoot 26.4275 -4.36214
ltoes 39.33
1017
root 7.6349 10.0856 12.9806 103.424 -3.57524 4.87492
lowerback -9.9408 1.54132 7.62158
upperback -6.34622 1.49419 -6.78355
thorax -0.778716 0.440242 -11.5148
lowerneck -5.48129 -1.49678 -2.53346
upperneck 41.6811 -3.52926 6.00419
head 15.8885 -1.05 2.60743
rclavicle -1.66979e-014 5.37713e-014
rhumerus 82.9192 -16.7942 -24.6817
rradius 31.7363
rwrist -5.24143
rhand -24.3223 -4.19931
rfingers 7.12502
rthumb 2.16608 -34.1681
lclavicle -1.66979e-014 5.37713e-014
lhumerus 91.3226 11.4066 24.8073
lradius 26.7246
lwrist 5.65096
lhand -41.048 -14.4505
lfingers 7.12502
lthumb -13.9779 15.0596
rfemur -35.8863 -3.91248 17.8807
rtibia 95.182
rfoot 28.6353 0.972946
rtoes 24.0377
lfemur -35.0484 -2.94684 -19.8693
ltibia 99.8109
lfoot 26.3535 -4.12704
ltoes 39.8675
1018
root 7.6362 10.0859 13.0055 103.755 -3.55246 4.82941
lowerback -10.1627 1.59634 7.68003
upperback -6.44463 1.55196 -6.80262
thorax -0.747316 0.465698 -11.5652
lowerneck -5.64123 -1.54874 -2.55496
upperneck 41.5476 -3.59539 6.00784
head 15.8604 -1.07723 2.59859
rclavicle 1.59028e-015 -2.48481e-015
rhumerus 82.587 -16.8113 -24.4476
rradius 31.6601
rwrist -3.78303
rhand -24.6206 -3.70634
rfingers 7.12502
rthumb 1.87801 -33.6778
lclavicle 1.59028e-015 -2.48481e-015
lhumerus 91.0421 11.4144 24.5103
lradius 26.7073
lwrist 5.11841
lhand -41.0356 -14.7938
lfingers 7.12502
lthumb -13.966 14.7171
rfemur -35.9514 -3.59753 17.87
rtibia 93.5697
rfoot 28.527 0.62827
rtoes 24.0687
lfemur -35.3485 -3.28187 -19.7717
ltibia 98.6147
lfoot 26.2566 -3.87021
ltoes 40.4848
1019
root 7.63664 10.0861 13.0283 104.069 -3.52985 4.78458
lowerback -10.3685 1.6386 7.72501
upperback -6.54098 1.59385 -6.81576
thorax -0.726872 0.482765 -11.6024
lowerneck -5.81987 -1.63047 -2.52212
upperneck 41.4521 -3.68058 5.91381
head 15.8551 -1.11461 2.53577
rclavicle -6.36111e-015 1.70955e-014
rhumerus 82.2786 -16.8214 -24.2406
rradius 31.5037
rwrist -2.34074
rhand -24.8637 -3.15623
rfingers 7.12502
rthumb 1.64323 -33.1297
lclavicle -6.36111e-015 1.70955e-014
lhumerus 90.6935 11.4333 24.138
lradius 26.7026
lwrist 4.54793
lhand -40.9775 -14.9507
lfingers 7.12502
lthumb -13.9099 14.5641
rfemur -35.9531 -3.2734 17.8681
rtibia 91.8305
rfoot 28.4474 0.229435
rtoes 24.0567
lfemur -35.5905 -3.60912 -19.669
ltibia 97.2987
lfoot 26.1361 -3.61949
ltoes 41.1011
1020
root 7.63652 10.0861 13.0493 104.371 -3.51144 4.74035
lowerback -10.5659 1.66871 7.76
upperback -6.63458 1.62004 -6.82518
thorax -0.712417 0.491691 -11.631
lowerneck -6.01232 -1.73107 -2.44561
upperneck 41.378 -3.77299 5.73836
head 15.8616 -1.15741 2.42897
rclavicle 1.03368e-014 -1.09332e-015
rhumerus 81.9989 -16.8229 -24.0803
rradius 31.2682
rwrist -0.911094
rhand -25.0519 -2.58068
rfingers 7.12502
rthumb 1.46144 -32.5554
lclavicle 1.03368e-014 -1.09332e-015
lhumerus 90.2717 11.46 23.6959
lradius 26.7346
lwrist 4.01708
lhand -40.8586 -14.9427
lfingers 7.12502
lthumb -13.7953 14.5799
rfemur -35.8998 -2.93939 17.8677
rtibia 89.9688
rfoot 28.3976 -0.235227
rtoes 24.0395
lfemur -35.7784 -3.93596 -19.569
ltibia 95.8642
lfoot 25.9952 -3.37478
ltoes 41.7019
1021
root 7.63638 10.0861 13.0683 104.664 -3.49877 4.69708
lowerback -10.759 1.6904 7.79339
upperback -6.72645 1.63474 -6.83534
thorax -0.701533 0.494437 -11.6608
lowerneck -6.21169 -1.83555 -2.34354
upperneck 41.3052 -3.86108 5.51943
head 15.8678 -1.19979 2.29895
rclavicle 7.95139e-015 -1.76918e-014
rhumerus 81.7289 -16.8169 -23.952
rradius 30.9671
rwrist 0.519307
rhand -25.2009 -2.03241
rfingers 7.12502
rthumb 1.31757 -32.0081
lclavicle 7.95139e-015 -1.76918e-014
lhumerus 89.7711 11.4855 23.1675
lradius 26.8268
lwrist 3.62687
lhand -40.695 -14.8076
lfingers 7.12502
lthumb -13.6377 14.7256
rfemur -35.8021 -2.59503 17.862
rtibia 87.9908
rfoot 28.3679 -0.766949
rtoes 24.0059
lfemur -35.9223 -4.26756 -19.477
ltibia 94.32
lfoot 25.8432 -3.1351
ltoes 42.2726
